<?xml version="1.0" encoding="UTF-8"?>
<svg width="200px" height="200px" viewBox="0 0 200 200" version="1.1" xmlns="http://www.w3.org/2000/svg" xmlns:xlink="http://www.w3.org/1999/xlink">
    <title>server-server-disable</title>
    <g id="server-server-disable" stroke="none" stroke-width="1" fill="none" fill-rule="evenodd">
        <g id="AddDomain" transform="translate(0.000000, -20.710678)" fill-rule="nonzero">
            <path d="M108.136047,28.7095098 C103.463639,33.5431862 99.6097676,39.1730932 96.7977752,45.3758877 L16.6666667,45.3773448 L16.6666667,145.377345 L183.333333,145.377345 L183.333936,118.77892 C189.961563,114.343551 195.640445,108.601046 200.00179,101.920197 L200,162.044011 L133.333333,162.044011 L133.333333,195.377345 L158.333333,195.377345 L158.333333,212.044011 L41.6666667,212.044011 L41.6666667,195.377345 L66.6666667,195.377345 L66.6666667,162.044011 L0,162.044011 L0,28.7106781 Z M116.666667,162.044011 L83.3333333,162.044011 L83.3333333,195.377345 L116.666667,195.377345 L116.666667,162.044011 Z" id="形状结合" fill="#656668"></path>
            <path d="M150,20.7106781 C177.614237,20.7106781 200,43.0964406 200,70.7106781 C200,98.3249156 177.614237,120.710678 150,120.710678 C122.385763,120.710678 100,98.3249156 100,70.7106781 C100,43.0964406 122.385763,20.7106781 150,20.7106781 Z M115,70.7106781 C115,90.0406444 130.670034,105.710678 150,105.710678 C157.079654,105.710678 163.66836,103.608683 169.176068,99.9947426 L120.715936,51.5346098 C117.101995,57.042318 115,63.6310244 115,70.7106781 Z M150,35.7106781 C143.179525,35.7106781 136.814709,37.661587 131.433143,41.0358138 L179.674864,89.2775346 C183.049091,83.8959689 185,77.5311531 185,70.7106781 C185,51.3807119 169.329966,35.7106781 150,35.7106781 Z" id="形状结合" fill="#E80049" transform="translate(150.000000, 70.710678) rotate(-45.000000) translate(-150.000000, -70.710678) "></path>
        </g>
    </g>
</svg>