<?xml version="1.0" encoding="UTF-8"?>
<svg width="200px" height="200px" viewBox="0 0 200 200" version="1.1" xmlns="http://www.w3.org/2000/svg" xmlns:xlink="http://www.w3.org/1999/xlink">
    <title>Customer_customer_deactive  </title>
    <g id="Customer_customer_deactive--" stroke="none" stroke-width="1" fill="none" fill-rule="evenodd">
        <g id="编组" fill-rule="nonzero">
            <path d="M97.5,0 C150.809285,0 194.125936,42.7835574 194.986938,95.8876592 L195,97.5 L178.834197,97.5 C178.834197,52.5803634 142.419637,16.1658031 97.5,16.1658031 C52.5803634,16.1658031 16.1658031,52.5803634 16.1658031,97.5 C16.1658031,141.97044 51.8557137,178.105055 96.1549903,178.8233 L97.5,178.834197 L97.5,195 C43.6522369,195 0,151.347763 0,97.5 C0,43.6522369 43.6522369,0 97.5,0 Z M97.5,32.3316062 C115.077249,32.3316062 129.326425,46.580782 129.326425,64.1580311 C129.326425,77.8509345 120.679155,89.5241597 108.547594,94.0147275 C112.546391,94.8073178 116.42367,96.0373197 120.119243,97.6747886 C114.46609,100.886421 109.391437,104.99587 105.086951,109.808671 C102.690052,109.353239 100.229135,109.119171 97.7307769,109.119171 C76.3361255,109.119171 58.9518251,126.289525 58.6062785,147.60183 L58.6010363,148.248912 L42.4352332,148.248912 C42.4352332,121.518197 61.4025892,99.2175454 86.6127955,94.0714631 C74.3973647,89.6271892 65.6735751,77.9113852 65.6735751,64.1580311 C65.6735751,46.580782 79.9227509,32.3316062 97.5,32.3316062 Z M97.5,48.4974093 C88.8508774,48.4974093 81.8393782,55.5089085 81.8393782,64.1580311 C81.8393782,72.8071537 88.8508774,79.8186528 97.5,79.8186528 C106.149123,79.8186528 113.160622,72.8071537 113.160622,64.1580311 C113.160622,55.5089085 106.149123,48.4974093 97.5,48.4974093 Z" id="形状结合" fill="#656668"></path>
            <path d="M149.5,99 C177.39038,99 200,121.60962 200,149.5 C200,177.39038 177.39038,200 149.5,200 C121.60962,200 99,177.39038 99,149.5 C99,121.60962 121.60962,99 149.5,99 Z M114.15,149.5 C114.15,169.023266 129.976734,184.85 149.5,184.85 C156.650556,184.85 163.305241,182.726922 168.868077,179.076743 L119.923257,130.131923 C116.273078,135.694759 114.15,142.349444 114.15,149.5 Z M149.5,114.15 C142.610955,114.15 136.182175,116.120627 130.746611,119.528929 L179.471071,168.253389 C182.879373,162.817825 184.85,156.389045 184.85,149.5 C184.85,129.976734 169.023266,114.15 149.5,114.15 Z" id="形状结合" fill="#E80049"></path>
        </g>
    </g>
</svg>
