<?xml version="1.0" encoding="UTF-8"?>
<svg width="200px" height="200px" viewBox="0 0 200 200" version="1.1" xmlns="http://www.w3.org/2000/svg" xmlns:xlink="http://www.w3.org/1999/xlink">
    <title>Customer_customer_activate</title>
    <g id="Customer_customer_activate" stroke="none" stroke-width="1" fill="none" fill-rule="evenodd">
        <g id="编组" fill-rule="nonzero">
            <path d="M97.5,0 C150.809285,0 194.125936,42.7835574 194.986938,95.8876592 L195,97.5 L178.834197,97.5 C178.834197,52.5803634 142.419637,16.1658031 97.5,16.1658031 C52.5803634,16.1658031 16.1658031,52.5803634 16.1658031,97.5 C16.1658031,141.97044 51.8557137,178.105055 96.1549903,178.8233 L97.5,178.834197 L97.5,195 C43.6522369,195 0,151.347763 0,97.5 C0,43.6522369 43.6522369,0 97.5,0 Z M97.5,32.3316062 C115.077249,32.3316062 129.326425,46.580782 129.326425,64.1580311 C129.326425,77.8509345 120.679155,89.5241597 108.547594,94.0147275 C116.963641,95.6828486 124.841422,99.2884973 131.619825,104.552514 L132.132922,104.955818 L129.194357,108.648045 C125.646324,110.622226 122.317163,112.942281 119.252446,115.562638 C112.936203,111.391599 105.515235,109.119171 97.7307769,109.119171 C76.3361255,109.119171 58.9518251,126.289525 58.6062785,147.60183 L58.6010363,148.248912 L42.4352332,148.248912 C42.4352332,121.518197 61.4025892,99.2175454 86.6127955,94.0714631 C74.3973647,89.6271892 65.6735751,77.9113852 65.6735751,64.1580311 C65.6735751,46.580782 79.9227509,32.3316062 97.5,32.3316062 Z M97.5,48.4974093 C88.8508774,48.4974093 81.8393782,55.5089085 81.8393782,64.1580311 C81.8393782,72.8071537 88.8508774,79.8186528 97.5,79.8186528 C106.149123,79.8186528 113.160622,72.8071537 113.160622,64.1580311 C113.160622,55.5089085 106.149123,48.4974093 97.5,48.4974093 Z" id="形状结合" fill="#656668"></path>
            <polygon id="形状结合" fill="#1AAC60" points="188.372952 118.122741 199.879206 129.24057 131.627048 199.877259 131.448 199.705 131.313841 199.859523 86.7104771 160.739372 97.2606276 148.710477 130.58 177.934"></polygon>
        </g>
    </g>
</svg>
