<?xml version="1.0" encoding="UTF-8"?>
<svg width="119px" height="29px" viewBox="0 0 119 29" version="1.1" xmlns="http://www.w3.org/2000/svg" xmlns:xlink="http://www.w3.org/1999/xlink">
    <title>logo</title>
    <g id="页面-1" stroke="none" stroke-width="1" fill="none" fill-rule="evenodd">
        <g id="help-about-micro-focus-application-lifecycle-managememt-" transform="translate(-901.000000, -153.000000)" fill="#0078EF">
            <g id="logo" transform="translate(901.000000, 153.000000)">
                <polyline id="Fill-52" points="29 0 29 23 23.4481793 23 23.4481793 5.55191722 6 5.55191722 6 0 29 0"></polyline>
                <polyline id="Fill-53" points="23 23.4480828 23 29 0 29 0 6 5.55151726 6 5.55151726 23.4480828 23 23.4480828"></polyline>
                <polyline id="Fill-54" points="48 12 48 0 45.6875565 0 41.5262555 5.97270246 37.3649545 0 35 0 35 12 37.3649545 12 37.3649545 4.13206811 40.7973714 9.11308982 42.2202629 9.11308982 45.6346536 4.13206811 45.6346536 12 48 12"></polyline>
                <polygon id="Fill-55" points="56 12 58 12 58 0 56 0"></polygon>
                <path d="M76,10.8090472 L76,8.12062914 L73.5996024,8.14285714 L73.5996024,9.65397114 L66.3996024,9.65397114 L66.3996024,2.34563889 L73.5996024,2.34563889 L73.5996024,3.87547121 L76,3.87976082 L76,1.20928116 C76,0.522942935 75.4763419,0 74.7904573,0 L65.1912525,0 C64.5240557,0 64,0.522942935 64,1.20928116 L64,10.8090472 C64,11.4766671 64.5240557,12 65.1912525,12 L74.7904573,12 C75.4763419,12 76,11.4766671 76,10.8090472" id="Fill-56"></path>
                <path d="M85.4004772,4.85389315 L92.6007157,4.85389315 L92.6007157,2.34563889 L85.4004772,2.34563889 L85.4004772,4.85389315 Z M95,12 L91.3915305,7.20031197 L93.7904172,7.20031197 C94.4763246,7.20031197 95,6.67658911 95,6.00896919 L95,1.20928116 C95,0.522942935 94.4763246,0 93.7904172,0 L83,0 L83,12 L85.4004772,12 L85.4004772,7.20031197 L88.3771165,7.20031197 L91.968488,12 L95,12 L95,12 Z" id="Fill-57"></path>
                <path d="M103.400875,9.65397114 L110.600716,9.65397114 L110.600716,2.34563889 L103.400875,2.34563889 L103.400875,9.65397114 Z M113,10.8090472 L113,1.20928116 C113,0.522942935 112.476722,0 111.79161,0 L102.191292,0 C101.523675,0 101,0.522942935 101,1.20928116 L101,10.8090472 C101,11.4766671 101.523675,12 102.191292,12 L111.79161,12 C112.476722,12 113,11.4766671 113,10.8090472 L113,10.8090472 Z" id="Fill-58"></path>
                <polyline id="Fill-59" points="47 19.3459526 47 17 35 17 35 29 37.3995228 29 37.3995228 24.1821402 44.6000795 24.1821402 44.6000795 21.8178598 37.3995228 21.8178598 37.3995228 19.3459526 47 19.3459526"></polyline>
                <path d="M54.3992843,26.6536574 L61.5999205,26.6536574 L61.5999205,19.3459526 L54.3992843,19.3459526 L54.3992843,26.6536574 Z M64,27.8086959 L64,18.2092419 C64,17.5233159 63.4763246,17 62.7908148,17 L53.1908943,17 C52.5236754,17 52,17.5233159 52,18.2092419 L52,27.8086959 C52,28.4762942 52.5236754,29 53.1908943,29 L62.7908148,29 C63.4763246,29 64,28.4762942 64,27.8086959 L64,27.8086959 Z" id="Fill-60"></path>
                <path d="M81,27.8086959 L81,25.1203653 L78.5991252,25.1425925 L78.5991252,26.6536574 L71.3996819,26.6536574 L71.3996819,19.3459526 L78.5991252,19.3459526 L78.5991252,20.8757352 L81,20.8800247 L81,18.2092419 C81,17.5233159 80.4767222,17 79.7904172,17 L70.1908943,17 C69.5236754,17 69,17.5233159 69,18.2092419 L69,27.8086959 C69,28.4762942 69.5236754,29 70.1908943,29 L79.7904172,29 C80.4767222,29 81,28.4762942 81,27.8086959" id="Fill-61"></path>
                <path d="M97,27.8086959 L97,17 L94.5994433,17 L94.5994433,26.6536574 L87.3997614,26.6536574 L87.3997614,17 L85,17 L85,27.8086959 C85,28.4762942 85.5236928,29 86.1909338,29 L95.7907747,29 C96.4767049,29 97,28.4762942 97,27.8086959" id="Fill-62"></path>
                <path d="M113,27.8086959 L113,23.0271017 C113,22.3595035 112.476325,21.8178598 111.790815,21.8178598 L103.399682,21.8178598 L103.399682,19.3459526 L110.599523,19.3459526 L110.599523,20.6090079 L113,20.6136873 L113,18.2092419 C113,17.5233159 112.476325,17 111.790815,17 L102.190894,17 C101.523675,17 101,17.5233159 101,18.2092419 L101,22.9725084 C101,23.6404965 101.523675,24.1821402 102.190894,24.1821402 L110.599523,24.1821402 L110.599523,26.6536574 L103.399682,26.6536574 L103.399682,25.4089299 L101,25.3867026 L101,27.8086959 C101,28.4762942 101.523675,29 102.190894,29 L111.790815,29 C112.476325,29 113,28.4762942 113,27.8086959" id="Fill-63"></path>
                <path d="M117.171505,2.41587529 L117.499462,2.41587529 C117.764785,2.41587529 117.866398,2.3228812 117.866398,2.08287045 C117.866398,1.83882817 117.769355,1.75846622 117.470968,1.75846622 L117.171505,1.75846622 L117.171505,2.41587529 Z M117.870699,3.4479484 L117.483602,2.6136893 L117.171505,2.6136893 L117.171505,3.4479484 L116.944355,3.4479484 L116.944355,1.5520516 L117.503763,1.5520516 C117.921237,1.5520516 118.093817,1.73723347 118.093817,2.08287045 C118.093817,2.36104641 117.96371,2.53762767 117.719624,2.58842501 L118.119355,3.4479484 L117.870699,3.4479484 Z M117.503763,1.1354596 C116.741398,1.1354596 116.135215,1.73723347 116.135215,2.50376277 C116.135215,3.25873499 116.741398,3.8645404 117.499462,3.8645404 C118.25457,3.8645404 118.860753,3.25873499 118.860753,2.50376277 C118.860753,1.73293317 118.271237,1.1354596 117.503763,1.1354596 Z M117.499462,4 C116.657527,4 116,3.34232216 116,2.50026877 C116,1.6536463 116.657527,1 117.503763,1 C118.329839,1 119,1.66197814 119,2.47930478 C119,3.33399032 118.342473,4 117.499462,4 L117.499462,4 Z" id="Fill-64"></path>
            </g>
        </g>
    </g>
</svg>