<?xml version="1.0" encoding="UTF-8"?>
<svg width="32px" height="32px" viewBox="0 0 32 32" version="1.1" xmlns="http://www.w3.org/2000/svg" xmlns:xlink="http://www.w3.org/1999/xlink">
    <title>information</title>
    <g id="dialog" stroke="none" stroke-width="1" fill="none" fill-rule="evenodd">
        <g transform="translate(-571.000000, -595.000000)" fill="#0073E7" id="编组-10">
            <g transform="translate(547.000000, 337.000000)">
                <path d="M40,288.031031 C32.2805,288.031031 26,281.719629 26,273.99975 C26,266.280371 32.2805,259.999969 40,259.999969 C47.7195,259.999969 54,266.280371 54,273.99975 C54,281.719629 47.7195,288.031031 40,288.031031 M40,258 C31.1635,258 24,265.163888 24,273.99975 C24,282.836612 31.1635,290 40,290 C48.837,290 56,282.836612 56,273.99975 C56,265.163888 48.837,258 40,258 M38,280.999641 C38,279.895158 38.8955,278.999672 40,278.999672 C41.1045,278.999672 42,279.895158 42,280.999641 C42,282.104123 41.1045,282.999609 40,282.999609 C38.8955,282.999609 38,282.104123 38,280.999641 Z M38.0184192,267.070984 L38.7096196,276.080812 C38.7493953,276.599291 39.1817022,276.999703 39.7017045,276.999703 L40.276154,276.999703 C40.7917962,276.999703 41.2220013,276.605773 41.267306,276.092125 L42.0619905,267.082297 C42.110272,266.534898 41.7056581,266.052004 41.1582599,266.003723 C41.1291899,266.001159 41.1000212,265.999875 41.0708384,265.999875 L39.0105041,265.999875 C38.4609808,265.999875 38.0155041,266.445352 38.0155041,266.994875 C38.0155041,267.020273 38.0164765,267.045661 38.0184192,267.070984 Z" id="information" transform="translate(40.000000, 274.000000) scale(1, -1) translate(-40.000000, -274.000000) "></path>
            </g>
        </g>
    </g>
</svg>