 <?xml version="1.0" encoding="UTF-8"?>
 <svg width="56px" height="56px" viewBox="0 0 56 56" version="1.1" xmlns="http://www.w3.org/2000/svg" xmlns:xlink="http://www.w3.org/1999/xlink">
        <!-- Generator: Sketch 59.1 (86144) - https://sketch.com -->
        <title>logo</title>
        <g id="User-Management" stroke="none" stroke-width="1" fill="none" fill-rule="evenodd">
          <g id="User-Management-fold-foldside-menu">
            <g id="logo">
              <rect id="矩形" fill="#29CEFF" x="0" y="0" width="56" height="56" />
              <path id="Fill-2" d="M19.7612313,16.0479942 C20.9081006,15.7057312 22.0948609,15.5311072 23.290486,15.5311072 C29.5999291,15.5311072 34.7348007,20.1551509 34.7348007,25.8379151 C34.7348007,26.9086097 34.5431018,27.9723194 34.1663525,29.0001064 C34.1098401,29.1557712 34.198487,29.2685284 34.301539,29.3234103 C34.4001587,29.3752986 34.5608312,29.3942577 34.686045,29.2725199 C36.8556778,27.1690489 37.8651444,24.3161916 37.4562606,21.4453729 C36.8357323,17.0877555 33.0239156,13.6491593 28.1849029,13.0823796 C24.985858,12.7081853 21.8078666,13.6202216 19.4642642,15.5849911 C19.3301858,15.6977484 19.3501313,15.841439 19.4088599,15.9302478 C19.4675885,16.0200544 19.5916941,16.0988847 19.7612313,16.0479942" fill="#FEFEFE" />
              <path id="Fill-4" d="M19.4642642,15.5849911 C21.8078666,13.6202216 24.985858,12.7081853 28.1849029,13.0823796 C33.0239156,13.6491593 36.8357323,17.0877555 37.4562606,21.4453729 C37.8651444,24.3161916 36.8556778,27.1680511 34.686045,29.2725199 C34.5608312,29.3942577 34.4001587,29.3752986 34.301539,29.3234103 C34.198487,29.2685284 34.1098401,29.1557712 34.1674606,29.0001064 C34.5431018,27.9723194 34.7348007,26.9086097 34.7348007,25.8369172 C34.7348007,20.1551509 29.5999291,15.5311072 23.290486,15.5311072 C22.095969,15.5311072 20.9081006,15.7057312 19.7612313,16.0479942 C19.5916941,16.0988847 19.4675885,16.0200544 19.4088599,15.9302478 C19.3501313,15.841439 19.3301858,15.6977484 19.4642642,15.5849911" fill="#FEFEFE" />
              <path id="Fill-6" d="M36.2731215,39.9573493 C35.2444264,40.2965088 34.1798118,40.4690811 33.1102084,40.4690811 C27.4279403,40.4690811 22.8043002,35.847535 22.8043002,30.1666144 C22.8043002,29.0932745 22.9779112,28.0259198 23.3191466,26.9954736 C23.3690348,26.8428519 23.2902114,26.7291337 23.1994149,26.6762647 C23.1595043,26.6523241 23.1076205,26.6363636 23.0527435,26.6363636 C22.9868911,26.6363636 22.9160498,26.6603043 22.8541884,26.7261411 C20.8925836,28.8339173 19.9816248,31.6918343 20.3547886,34.5687044 C20.9195233,38.9249081 24.3578193,42.3583986 28.7150563,42.9190092 C31.5856244,43.289092 34.4402283,42.3793467 36.5445134,40.4261874 C36.6672384,40.3114717 36.6482809,40.1678277 36.5953994,40.0780502 C36.5415201,39.9862776 36.4287727,39.9054779 36.2731215,39.9573493" fill="#FEFEFE" />
              <path id="Fill-8" d="M36.5445134,40.4261874 C34.4402283,42.3793467 31.5856244,43.289092 28.7150563,42.9190092 C24.3578193,42.3583986 20.9195233,38.9249081 20.3547886,34.5687044 C19.9816248,31.6918343 20.8925836,28.8339173 22.8541884,26.7271387 C22.9160498,26.6603043 22.9868911,26.6363636 23.0537413,26.6363636 C23.1076205,26.6363636 23.1595043,26.6523241 23.1994149,26.6762647 C23.2902114,26.7301312 23.3690348,26.8428519 23.3191466,26.9954736 C22.9779112,28.0259198 22.8043002,29.094272 22.8043002,30.1666144 C22.8043002,35.847535 27.4279403,40.4690811 33.1102084,40.4690811 C34.1798118,40.4690811 35.2444264,40.2965088 36.2731215,39.9573493 C36.4287727,39.9064754 36.5415201,39.9872751 36.5953994,40.0780502 C36.6482809,40.1678277 36.6672384,40.3124692 36.5445134,40.4261874" fill="#FEFEFE" />
              <path id="Fill-10" d="M40.4217737,20.3651241 C40.3080725,20.2424314 40.162455,20.2603864 40.0726909,20.313254 C39.9829267,20.3671191 39.9041337,20.4788392 39.9550001,20.6324544 C40.2961039,21.6628731 40.4676532,22.7292019 40.4676532,23.8025132 C40.4676532,29.4832825 35.8467935,34.1037081 30.1667167,34.1037081 C29.0935362,34.1037081 28.02634,33.9321379 26.9960469,33.5909925 C26.962136,33.5790225 26.9302199,33.574035 26.9012958,33.574035 C26.7955736,33.574035 26.7187754,33.637875 26.6768854,33.7077001 C26.6240243,33.7974752 26.6060715,33.9421129 26.7287492,34.0568255 C28.5170508,35.7206575 30.8489243,36.6363636 33.2935017,36.6363636 C38.6454407,36.6363636 42.9990026,32.2812734 43,26.928682 C43,24.4858015 42.0844055,22.1536437 40.4217737,20.3651241" fill="#FEFEFE" />
              <path id="Fill-12" d="M33.2934039,36.6363636 C30.8488018,36.6363636 28.5179022,35.7206483 26.7285852,34.0567995 C26.6059062,33.9430832 26.6238593,33.7974466 26.6777183,33.7076706 C26.7186113,33.6378448 26.7964077,33.5750016 26.9011336,33.5750016 C26.9310553,33.5750016 26.9619744,33.5799892 26.9958856,33.5909618 C28.0261891,33.9321106 29.093396,34.1046801 30.1675847,34.1046801 C35.8477188,34.1046801 40.4686251,29.4832104 40.4686251,23.8033813 C40.4686251,22.7300592 40.2960766,21.6627222 39.9549694,20.6322931 C39.9041025,20.4796739 39.9828963,20.3669551 40.0736588,20.314087 C40.1634238,20.2602214 40.3080453,20.2422662 40.4217477,20.3649601 C42.0843963,22.1534977 43,24.485679 43,26.9295816 C43,32.282227 38.6453968,36.6363636 33.2934039,36.6363636" fill="#FEFEFE" />
              <path id="Fill-14" d="M15.5308664,32.1863013 C15.5308664,26.5100419 20.1516594,21.8922878 25.8316543,21.8922878 C26.9058166,21.8922878 27.9729974,22.0657152 29.004273,22.4055931 C29.1578673,22.4564253 29.2695722,22.3776852 29.3234299,22.2869847 C29.3752929,22.1982776 29.3942428,22.0557481 29.2725643,21.94312 C27.4763095,20.2716385 25.1315039,19.3636364 22.695938,19.3636364 C22.278042,19.3636364 21.8571539,19.3905475 21.4352684,19.4443698 C17.0797745,20.0055171 13.6438514,23.4381839 13.0813374,27.7908133 C12.7093202,30.6713032 13.6249014,33.5318588 15.592703,35.6379055 C15.7044079,35.7575106 15.8470311,35.7385731 15.9347993,35.687741 C16.0235648,35.6339187 16.1013593,35.5242806 16.0504936,35.3737775 C15.7054053,34.3371999 15.5308664,33.2657374 15.5308664,32.1863013" fill="#FEFEFE" />
            </g>
          </g>
        </g>
      </svg>