<?xml version="1.0" encoding="UTF-8"?>
<svg width="200px" height="200px" viewBox="0 0 200 200" version="1.1" xmlns="http://www.w3.org/2000/svg" xmlns:xlink="http://www.w3.org/1999/xlink">
    <title>Custome_owmer customer_activate</title>
    <g id="Custome_owmer-customer_activate" stroke="none" stroke-width="1" fill="none" fill-rule="evenodd">
        <g id="编组" transform="translate(0.000000, 13.000000)" fill-rule="nonzero">
            <g id="hezuo" fill="#656668">
                <path d="M126.131811,0 C126.520154,0 126.885655,0.137223975 127.182623,0.434542587 L127.182623,0.434542587 L199.574493,72.8888013 C200.145587,73.4834385 200.145587,74.4211356 199.551649,75.0157729 L199.551649,75.0157729 L191.017,83.559 L181.213,73.934 L181.230955,73.9179811 L126.108967,18.7310726 L97.6913317,47.1364353 L80.8097944,64.0378549 L81.1981383,64.4266562 C83.8480143,67.0567823 87.365953,68.5205047 91.0894856,68.5205047 C94.8358619,68.5205047 98.3309569,67.079653 100.980833,64.4266562 L100.980833,64.4266562 L106.120678,59.2807571 L106.143522,59.3036278 L119.918308,45.5126183 L149.481,75.11 L137.4,86.893 L117.633933,67.1025237 L110.620899,74.123817 C105.229772,79.544164 98.1482069,82.2429022 91.0666418,82.2429022 C83.9850768,82.2429022 76.9035118,79.5212934 71.5123849,74.123817 L71.5123849,74.123817 L62.5347879,65.1356467 C61.9408502,64.5181388 61.9408502,63.557571 62.5347879,62.9629338 L62.5347879,62.9629338 L89.1706099,36.2957413 L73.8196044,20.9266562 L20.8677731,73.9408517 L94.555,147.736 L110.549,164.031 L101.049364,173.542587 C100.789516,173.802741 100.44222,173.957832 100.099296,173.99254 L99.9528638,174 C99.5416761,174 99.1533322,173.839905 98.8563634,173.542587 L98.8563634,173.542587 L0.445453284,75.0157729 C-0.148484428,74.4211356 -0.148484428,73.4376972 0.445453284,72.8430599 L0.445453284,72.8430599 L72.723104,0.480283912 C73.0200729,0.1829653 73.4312605,0.0228706625 73.8196044,0.0228706625 C74.2307921,0.0228706625 74.619136,0.1829653 74.9161048,0.480283912 L74.9161048,0.480283912 L99.9757075,25.54653 L125.080998,0.434542587 C125.377967,0.137223975 125.743467,0 126.131811,0 Z" id="形状结合"></path>
            </g>
            <polygon id="形状结合" fill="#1AAC60" points="190.396031 93.0796562 201.923588 104.175395 139.603969 168.920344 139.498 168.819 139.430165 168.898653 97.7158301 132.817013 108.182987 120.71583 138.529 146.964"></polygon>
        </g>
    </g>
</svg>
