<?xml version="1.0" encoding="UTF-8"?>
<svg width="200px" height="200px" viewBox="0 0 200 200" version="1.1" xmlns="http://www.w3.org/2000/svg" xmlns:xlink="http://www.w3.org/1999/xlink">
    <title>Customer_owmer customer _deactivare</title>
    <g id="Customer_owmer-customer-_deactivare" stroke="none" stroke-width="1" fill="none" fill-rule="evenodd">
        <g id="编组" transform="translate(0.000000, 13.000000)" fill-rule="nonzero">
            <g id="hezuo" fill="#656668">
                <path d="M126.131811,0 C126.520154,0 126.885655,0.137223975 127.182623,0.434542587 L127.182623,0.434542587 L199.574493,72.8888013 C200.145587,73.4834385 200.145587,74.4211356 199.551649,75.0157729 L199.551649,75.0157729 L191.051,83.525 L178.644,71.328 L126.108967,18.7310726 L97.6913317,47.1364353 L80.8097944,64.0378549 L81.1981383,64.4266562 C83.8480143,67.0567823 87.365953,68.5205047 91.0894856,68.5205047 C94.8358619,68.5205047 98.3309569,67.079653 100.980833,64.4266562 L100.980833,64.4266562 L106.120678,59.2807571 L106.143522,59.3036278 L119.918308,45.5126183 L142.926992,68.5477368 C136.456914,69.4330398 130.320929,71.3673187 124.696076,74.1735326 L117.633933,67.1025237 L110.620899,74.123817 C105.229772,79.544164 98.1482069,82.2429022 91.0666418,82.2429022 C83.9850768,82.2429022 76.9035118,79.5212934 71.5123849,74.123817 L71.5123849,74.123817 L62.5347879,65.1356467 C61.9408502,64.5181388 61.9408502,63.557571 62.5347879,62.9629338 L62.5347879,62.9629338 L89.1706099,36.2957413 L73.8196044,20.9266562 L20.8677731,73.9408517 L77.178,130.334 L77,130.5 L89.405,142.578 L99.93002,153.119085 L100.078,152.971 L110.987,163.592 L101.049364,173.542587 C100.789516,173.802741 100.44222,173.957832 100.099296,173.99254 L99.9528638,174 C99.5416761,174 99.1533322,173.839905 98.8563634,173.542587 L98.8563634,173.542587 L0.445453284,75.0157729 C-0.148484428,74.4211356 -0.148484428,73.4376972 0.445453284,72.8430599 L0.445453284,72.8430599 L72.723104,0.480283912 C73.0200729,0.1829653 73.4312605,0.0228706625 73.8196044,0.0228706625 C74.2307921,0.0228706625 74.619136,0.1829653 74.9161048,0.480283912 L74.9161048,0.480283912 L99.9757075,25.54653 L125.080998,0.434542587 C125.377967,0.137223975 125.743467,0 126.131811,0 Z" id="形状结合"></path>
            </g>
            <path d="M150,75 C177.614237,75 200,97.3857625 200,125 C200,152.614237 177.614237,175 150,175 C122.385763,175 100,152.614237 100,125 C100,97.3857625 122.385763,75 150,75 Z M150,90 C130.670034,90 115,105.670034 115,125 C115,144.329966 130.670034,160 150,160 C169.329966,160 185,144.329966 185,125 C185,105.670034 169.329966,90 150,90 Z" id="椭圆形" fill="#E80049"></path>
            <polygon id="直线-5" fill="#E80049" transform="translate(151.500000, 126.000000) rotate(-45.000000) translate(-151.500000, -126.000000) " points="159 80 159 172 144 172 144 80"></polygon>
        </g>
    </g>
</svg>
