<?xml version="1.0" encoding="UTF-8"?>
<svg width="200px" height="200px" viewBox="0 0 200 200" version="1.1" xmlns="http://www.w3.org/2000/svg" xmlns:xlink="http://www.w3.org/1999/xlink">
    <g id="Project-Active--lock" stroke="none" stroke-width="1" fill="none" fill-rule="evenodd">
        <g id="编组">
            <rect id="矩形" x="0" y="0" width="200" height="200"></rect>
            <g id="Project-Active" transform="translate(28.000000, 28.000000)" fill="#656668" fill-rule="nonzero">
                <path d="M62.9,131.945 L85.1097525,131.945808 L85.1097525,144 L62.9,144 L62.9,131.945 Z M144,0 L144,67.1827528 L131.946597,67.1827528 L131.946597,20.5929708 L106.313089,46.2281563 L106.313089,81.5827528 L94.2408377,81.5827528 L94.2408377,49.762419 L12.0722514,49.762419 L12.072,72 L0,72 L2.07437552e-08,41.233065 L41.2303666,0 L144,0 Z M123.408377,12.0730415 L46.225131,12.0730415 L20.5916231,37.6988022 L97.7748691,37.6988022 L123.408377,12.0730415 Z" id="形状结合"></path>
            </g>
            <path d="M56,108 C65.6604142,108.011205 73.4889784,115.970246 73.5,125.791667 L73.5,133.416667 L81,133.416667 L81,169 L31,169 L31,133.416667 L38.5,133.416667 L38.5,125.791667 C38.5110216,115.970246 46.3395859,108.011205 56,108 Z M77,139 L37,139 L37,165 L77,165 L77,139 Z M57,151 L57,154 L56,154 L56,151 L57,151 Z M57,113 C49.8236924,113.008266 44.0081874,118.879689 44,126.125 L44,134 L70,134 L70,126.125 C69.9918126,118.879689 64.1763077,113.008266 57,113 Z" id="形状" stroke="#656668" stroke-width="6" fill="#656668" fill-rule="nonzero"></path>
            <polygon id="形状结合" fill="#1AAC60" fill-rule="nonzero" points="176.628525 113.048374 184.913028 121.053211 135.771475 171.911626 135.64256 171.7876 135.545965 171.898857 103.431543 143.732348 111.027652 135.071543 135.0176 156.11248"></polygon>
        </g>
    </g>
</svg>