<?xml version="1.0" encoding="UTF-8"?>
<svg width="200px" height="200px" viewBox="0 0 200 200" version="1.1" xmlns="http://www.w3.org/2000/svg" xmlns:xlink="http://www.w3.org/1999/xlink">
    <g id="Project-Inactive" stroke="none" stroke-width="1" fill="none" fill-rule="evenodd">
        <g id="编组">
            <rect id="矩形" x="0" y="0" width="200" height="200"></rect>
            <g id="Project-Inactive" transform="translate(100.000000, 100.000000)" fill="#E80049" fill-rule="nonzero">
                <path d="M10.8,36.2428539 C10.8,31.3823188 12.2572879,26.8882872 14.6570135,23.04 L48.96,57.3342602 C45.1204391,59.7427121 40.6176812,61.2 35.7571461,61.2 C21.9796761,61.1855708 10.8144292,50.0203239 10.8,36.2428539 M61.2,35.7571461 C61.1832324,40.4347274 59.8430088,45.0120602 57.3342602,48.96 L23.04,14.6657398 C26.8795609,12.2572879 31.3823188,10.8 36.2428539,10.8 C50.0203239,10.8144292 61.1855708,21.9796761 61.2,35.7571461 M36,0 C16.1256967,0.0191744497 0.0191744497,16.1256967 0,36 C0.0191744497,55.8743033 16.1256967,71.9808256 36,72 C55.8743033,71.9808256 71.9808256,55.8743033 72,36 C71.9808256,16.1256967 55.8743033,0.0191744497 36,0" id="形状"></path>
            </g>
            <g id="Project-Active" transform="translate(28.000000, 28.000000)" fill="#656668" fill-rule="nonzero">
                <path d="M41.2303665,0 L0,41.233065 L0,144 L56.2900524,144 L56.2900524,131.945808 L12.0722513,131.945808 L12.0722513,49.762419 L94.2408377,49.762419 L94.2408377,62.8627528 L106.313089,62.8627528 L106.313089,46.2281563 L131.946597,20.5929708 L131.946597,62.8627528 L144,62.8627528 L144,0 L41.2303665,0 Z M46.225131,12.0730415 L123.408377,12.0730415 L97.774869,37.6988022 L20.5916231,37.6988022 L46.225131,12.0730415 Z" id="形状"></path>
            </g>
        </g>
    </g>
</svg>