<?xml version="1.0" encoding="UTF-8"?>
<svg width="200px" height="200px" viewBox="0 0 200 200" version="1.1" xmlns="http://www.w3.org/2000/svg" xmlns:xlink="http://www.w3.org/1999/xlink">
    <g id="Project-Active" stroke="none" stroke-width="1" fill="none" fill-rule="evenodd">
        <g id="编组">
            <rect id="矩形" x="0" y="0" width="200" height="200"></rect>
            <g id="Project-Active" transform="translate(28.000000, 28.000000)" fill="#656668" fill-rule="nonzero">
                <path d="M41.2303665,0 L0,41.233065 L0,144 L56.2900524,144 L56.2900524,131.945808 L12.0722513,131.945808 L12.0722513,49.762419 L94.2408377,49.762419 L94.2408377,81.5827528 L106.313089,81.5827528 L106.313089,46.2281563 L131.946597,20.5929708 L131.946597,67.1827528 L144,67.1827528 L144,0 L41.2303665,0 Z M46.225131,12.0730415 L123.408377,12.0730415 L97.774869,37.6988022 L20.5916231,37.6988022 L46.225131,12.0730415 Z" id="形状"></path>
            </g>
            <polygon id="形状结合" fill="#1AAC60" fill-rule="nonzero" points="163.628525 113.048374 171.913028 121.053211 122.771475 171.911626 122.64256 171.7876 122.545965 171.898857 90.4315435 143.732348 98.0276518 135.071543 122.0176 156.11248"></polygon>
        </g>
    </g>
</svg>