<?xml version="1.0" encoding="UTF-8"?>
<svg width="200px" height="200px" viewBox="0 0 200 200" version="1.1" xmlns="http://www.w3.org/2000/svg" xmlns:xlink="http://www.w3.org/1999/xlink">
    <g id="Project-Active--lock备份" stroke="none" stroke-width="1" fill="none" fill-rule="evenodd">
        <g id="编组">
            <rect id="矩形" x="0" y="0" width="200" height="200"></rect>
            <g id="Project-Active" transform="translate(28.000000, 28.000000)" fill="#656668" fill-rule="nonzero">
                <path d="M62.9,131.945 L85.1097525,131.945808 L85.1097525,144 L62.9,144 L62.9,131.945 Z M144,0 L144,67.1827528 L131.946597,67.1827528 L131.946597,20.5929708 L106.313089,46.2281563 L106.313089,67.1827528 L94.2408377,67.1827528 L94.2408377,49.762419 L12.0722514,49.762419 L12.072,72 L0,72 L2.07437552e-08,41.233065 L41.2303666,0 L144,0 Z M123.408377,12.0730415 L46.225131,12.0730415 L20.5916231,37.6988022 L97.7748691,37.6988022 L123.408377,12.0730415 Z" id="形状结合"></path>
            </g>
            <path d="M56.0034798,105.000002 C67.2136712,105.013005 76.300011,114.13462 76.4967569,125.441287 L76.5,125.791667 L76.5,130.416 L84,130.416667 L84,172.000002 L28,172.000002 L28,130.416667 L35.5,130.416 L35.5,125.7883 C35.5126036,114.558854 44.2988701,105.396046 55.3022921,105.012487 L55.6504979,105.003301 L56.0034798,105.000002 Z M74,142 L40,142 L40,162 L74,162 L74,142 Z M60,148 L60,157 L53,157 L53,148 L60,148 Z M57,115.999 L56.7285491,116.004065 C51.4325426,116.154821 47.1559598,120.471382 47.0041638,125.841411 L47,126.125 L47,131 L67,131 L67,126.12839 C66.993782,120.624179 62.6603698,116.157467 57.2714509,116.004065 L57,115.999 Z" id="形状" fill="#656668" fill-rule="nonzero"></path>
            <g id="Project-Inactive" transform="translate(113.000000, 100.000000)" fill="#E80049" fill-rule="nonzero">
                <path d="M10.8,36.2428539 C10.8,31.3823188 12.2572879,26.8882872 14.6570135,23.04 L48.96,57.3342602 C45.1204391,59.7427121 40.6176812,61.2 35.7571461,61.2 C21.9796761,61.1855708 10.8144292,50.0203239 10.8,36.2428539 M61.2,35.7571461 C61.1832324,40.4347274 59.8430088,45.0120602 57.3342602,48.96 L23.04,14.6657398 C26.8795609,12.2572879 31.3823188,10.8 36.2428539,10.8 C50.0203239,10.8144292 61.1855708,21.9796761 61.2,35.7571461 M36,0 C16.1256967,0.0191744497 0.0191744497,16.1256967 0,36 C0.0191744497,55.8743033 16.1256967,71.9808256 36,72 C55.8743033,71.9808256 71.9808256,55.8743033 72,36 C71.9808256,16.1256967 55.8743033,0.0191744497 36,0" id="形状"></path>
            </g>
        </g>
    </g>
</svg>