<?xml version="1.0" encoding="UTF-8"?>
<svg width="18px" height="18px" viewBox="0 0 18 18" version="1.1" xmlns="http://www.w3.org/2000/svg" xmlns:xlink="http://www.w3.org/1999/xlink">
    <g id="画板" stroke="none" stroke-width="1" fill="none" fill-rule="evenodd">
        <g id="worning" transform="translate(1.000000, 2.000000)" fill="#FFB000" fill-rule="nonzero">
            <g id="Combined-Shape">
                <path d="M8.22498288,0 C8.59781859,0 8.93969433,0.207413086 9.11191037,0.538091317 L15.6258744,13.0457881 C15.8809795,13.5356246 15.6906921,14.1395191 15.2008556,14.3946242 C15.0582183,14.4689092 14.8997687,14.5076967 14.7389469,14.5076967 L1,14.5076967 C0.44771525,14.5076967 2.99874823e-25,14.0599815 2.99874823e-25,13.5076967 C2.99874823e-25,13.3378773 0.043246954,13.1708552 0.125663887,13.0223759 L7.06835599,0.514679115 C7.2446726,0.197033655 7.57939308,0 7.9426921,0 L8.22498288,0 Z M7.80810416,10.6674961 C7.25581941,10.6674961 6.80810416,11.1152114 6.80810416,11.6674961 C6.80810416,12.2197808 7.25581941,12.6674961 7.80810416,12.6674961 C8.36038891,12.6674961 8.80810416,12.2197808 8.80810416,11.6674961 C8.80810416,11.1152114 8.36038891,10.6674961 7.80810416,10.6674961 Z M8.80810416,4.66749606 L6.80810416,4.66749606 L7.05810416,9.66749606 L8.55810416,9.66749606 L8.80810416,4.66749606 Z" id="path-3"></path>
            </g>
        </g>
    </g>
</svg>