<?xml version="1.0" encoding="UTF-8"?>
<svg width="26px" height="24px" viewBox="0 0 26 24" version="1.1" xmlns="http://www.w3.org/2000/svg" xmlns:xlink="http://www.w3.org/1999/xlink">
    <title>a-ziyuan35</title>
    <g id="confirm-change-QC-user-password" stroke="none" stroke-width="1" fill="none" fill-rule="evenodd">
        <g id="confirm-change-QC-password" transform="translate(-788.000000, -325.000000)" fill-rule="nonzero">
            <g id="编组-4" transform="translate(776.000000, 258.000000)">
                <g id="编组-7" transform="translate(13.000000, 58.000000)">
                    <g id="a-ziyuan35" transform="translate(0.000000, 10.000000)">
                        <path d="M10.4665329,0.909942277 L0.237509941,19.1735085 C-0.0790073807,19.7382956 -0.0791807788,20.4341004 0.237055005,20.9990548 C0.55329079,21.5640093 1.13794335,21.912375 1.77097699,21.9130435 L22.229023,21.9130435 C22.8620566,21.912375 23.4467092,21.5640093 23.762945,20.9990548 C24.0791808,20.4341004 24.0790074,19.7382956 23.7624901,19.1735085 L13.5334671,0.909942277 C13.2163161,0.346689919 12.632062,0 12,0 C11.367938,0 10.7836839,0.346689919 10.4665329,0.909942277 Z" id="路径" stroke="#F48B34" stroke-width="2"></path>
                        <path d="M12,7 L12,7 C12.6666667,7 13,7.19444445 13,7.58333334 L13,13.4166667 C13,13.8055556 12.6666667,14 12,14 L12,14 C11.3333333,14 11,13.8055556 11,13.4166667 L11,7.58333334 C11,7.19444445 11.3333333,7 12,7 Z" id="路径" fill="#F48B34"></path>
                        <path d="M11,17 C10.9999453,17.3572474 11.1905323,17.6873809 11.4999558,17.8660204 C11.8093793,18.0446599 12.1906207,18.0446599 12.5000442,17.8660204 C12.8094677,17.6873809 13.0000547,17.3572474 13,17 C13.0000547,16.6427526 12.8094677,16.3126191 12.5000442,16.1339796 C12.1906207,15.9553401 11.8093793,15.9553401 11.4999558,16.1339796 C11.1905323,16.3126191 10.9999453,16.6427526 11,17 Z" id="路径" fill="#F48B34"></path>
                    </g>
                </g>
            </g>
        </g>
    </g>
</svg>