<?xml version="1.0" encoding="UTF-8"?>
<svg width="33px" height="30px" viewBox="0 0 33 30" version="1.1" xmlns="http://www.w3.org/2000/svg" xmlns:xlink="http://www.w3.org/1999/xlink">
    <title>warning</title>
    <g id="tools" stroke="none" stroke-width="1" fill="none" fill-rule="evenodd">
        <g id="4、tools-project-update-prioritization-warning" transform="translate(-774.000000, -470.000000)" fill-rule="nonzero">
            <g id="编组" transform="translate(743.000000, 443.000000)">
                <g id="warning" transform="translate(32.000000, 28.000000)">
                    <path d="M13.5192717,1.16270402 L0.306783674,24.4994831 C-0.1020512,25.2211555 -0.102275173,26.1102394 0.306196049,26.8321256 C0.71466727,27.5540118 1.46984349,27.9991458 2.28751194,28 L28.7124881,28 C29.5301565,27.9991458 30.2853327,27.5540118 30.693804,26.8321256 C31.1022752,26.1102394 31.1020512,25.2211555 30.6932163,24.4994831 L17.4807283,1.16270402 C17.071075,0.442992674 16.3164134,0 15.5,0 C14.6835866,0 13.928925,0.442992674 13.5192717,1.16270402 Z" id="路径" stroke="#F48B34" stroke-width="2"></path>
                    <path d="M15.5,9 L15.5,9 C16.5,9 17,9.27777778 17,9.83333334 L17,18.1666667 C17,18.7222222 16.5,19 15.5,19 L15.5,19 C14.5,19 14,18.7222222 14,18.1666667 L14,9.83333334 C14,9.27777778 14.5,9 15.5,9 Z" id="路径" fill="#F48B34"></path>
                    <path d="M14,21.5 C13.999918,22.035871 14.2857984,22.5310714 14.7499337,22.7990306 C15.214069,23.0669898 15.785931,23.0669898 16.2500663,22.7990306 C16.7142016,22.5310714 17.000082,22.035871 17,21.5 C17.000082,20.964129 16.7142016,20.4689286 16.2500663,20.2009694 C15.785931,19.9330102 15.214069,19.9330102 14.7499337,20.2009694 C14.2857984,20.4689286 13.999918,20.964129 14,21.5 Z" id="路径" fill="#F48B34"></path>
                </g>
            </g>
        </g>
    </g>
</svg>
